<svg xmlns="http://www.w3.org/2000/svg" version="1.1" xmlns:xlink="http://www.w3.org/1999/xlink" xmlns:svgjs="http://svgjs.com/svgjs" width="512" height="512" x="0" y="0" viewBox="0 0 512 512" style="enable-background:new 0 0 512 512" xml:space="preserve" class=""><g><path xmlns="http://www.w3.org/2000/svg" d="M224,152a8.00917,8.00917,0,0,1-8,8h-8v16h8a24.02687,24.02687,0,0,0,24-24V136H224Z" fill="#ffffff" data-original="#000000" class=""></path><circle xmlns="http://www.w3.org/2000/svg" cx="200" cy="128" r="8" fill="#ffffff" data-original="#000000" class=""></circle><circle xmlns="http://www.w3.org/2000/svg" cx="248" cy="128" r="8" fill="#ffffff" data-original="#000000" class=""></circle><path xmlns="http://www.w3.org/2000/svg" d="M197.65674,178.34326l-11.31348,11.31348A35.08178,35.08178,0,0,0,211.31348,200H232V184H211.31348A19.18705,19.18705,0,0,1,197.65674,178.34326Z" fill="#ffffff" data-original="#000000" class=""></path><path xmlns="http://www.w3.org/2000/svg" d="M488,400H474.05615l21.73877-94.20117A7.99952,7.99952,0,0,0,488,296h-8V256a32.036,32.036,0,0,0-32-32H376a32.0569,32.0569,0,0,0-30.9939,24.02551C344.67065,248.01709,344.3374,248,344,248h-4.68652L319.0293,227.71582A39.73644,39.73644,0,0,0,290.74512,216H264.14917A67.01778,67.01778,0,0,0,280,172.669V81.54236A48.017,48.017,0,0,0,304,40a24.0275,24.0275,0,0,0-24-24H171.71973a75.71975,75.71975,0,0,0-70.89844,102.30713L120,169.45093V216H97.53906A81.63122,81.63122,0,0,0,16,297.53906V496H32V346.07446a82.68948,82.68948,0,0,0,7.88232,9.12134L161.94141,477.25488A63.58075,63.58075,0,0,0,207.1958,496H416a80.09041,80.09041,0,0,0,80-80v-8A7.99977,7.99977,0,0,0,488,400Zm-30.36426,0H302.36426l-20.30762-88H312v32a7.99977,7.99977,0,0,0,8,8h24v24a7.99977,7.99977,0,0,0,8,8h48a8.00056,8.00056,0,0,0,7.87109-6.56885L409.58594,368H440a7.99993,7.99993,0,0,0,7.80957-6.26465L458.86206,312h19.0813ZM376,344V296h30.41406l-13.09082,72H360V352h8A7.99977,7.99977,0,0,0,376,344Zm46.67676-48H436.0542a8.00016,8.00016,0,0,1,7.80957,9.73535L433.58252,352H412.49487ZM360,336H328V304a8.00917,8.00917,0,0,1,8-8h24Zm16-96h72a16.01833,16.01833,0,0,1,16,16v40h-5.30676a24.05212,24.05212,0,0,0-22.639-16H383.19507a40.13775,40.13775,0,0,0-22.57349-28.36865A16.01772,16.01772,0,0,1,376,240Zm-9.3761,40H336a24.03765,24.03765,0,0,0-22.6239,16H296v-8a24.02687,24.02687,0,0,1,24-24h24A24.03765,24.03765,0,0,1,366.6239,280ZM176,260.68652l-40-40V176h3.05585l13.39,26.78027a66.90831,66.90831,0,0,0,45.78461,35.67578ZM120,232h4.68652l38.5459,38.5459L120,297.56592Zm99.679,7.63452A66.82772,66.82772,0,0,0,232,237.1582v60.40772l-43.23242-27.02ZM264,172.669A51.32581,51.32581,0,0,1,240.13531,216H240v.08691A51.276,51.276,0,0,1,166.75635,195.625l-13.94177-27.884,22.53845-52.5896a7.99756,7.99756,0,0,0-.19776-6.729L164.94434,88H256a48.06621,48.06621,0,0,0,8-.67944ZM112,91.71973A59.78721,59.78721,0,0,1,171.71973,32H280a8.00917,8.00917,0,0,1,8,8,32.036,32.036,0,0,1-32,32H152a7.99974,7.99974,0,0,0-7.15527,11.57764l14.34033,28.68115L138.72461,160H133.544l-17.74122-47.311A59.5101,59.5101,0,0,1,112,91.71973ZM32,297.53906A65.61352,65.61352,0,0,1,97.53906,232H104v80a8.00043,8.00043,0,0,0,12.24023,6.78418L176,281.43433l59.75977,37.34985A8.00044,8.00044,0,0,0,248,312V232h42.74512a23.84457,23.84457,0,0,1,16.9707,7.0293l9.1084,9.1084A40.04489,40.04489,0,0,0,280,288v8h-8a7.99952,7.99952,0,0,0-7.79492,9.79883L285.94385,400H235.31348l-77.65674-77.65674-11.31348,11.31348L180.68652,368,128,420.68652l-76.8042-76.8042A65.11131,65.11131,0,0,1,32,297.53906ZM207.1958,480a47.68523,47.68523,0,0,1-33.94092-14.05859L139.31348,432,192,379.31348l34.34326,34.34326A7.99877,7.99877,0,0,0,232,416H377.167a6.83293,6.83293,0,0,1,3.05615,12.94434l-23.80078,11.90039,7.15528,14.31054,23.80127-11.90039A22.83678,22.83678,0,0,0,398.95459,416H432a64.0727,64.0727,0,0,1-64,64ZM416,480h-.05542A79.92657,79.92657,0,0,0,448,416h32A64.0727,64.0727,0,0,1,416,480Z" fill="#ffffff" data-original="#000000" class=""></path></g></svg>